<?xml version="1.0" encoding="UTF-8"?>
<!DOCTYPE svg PUBLIC "-//W3C//DTD SVG 1.0//EN" "http://www.w3.org/TR/2001/REC-SVG-20010904/DTD/svg10.dtd">
<!-- Creator: CorelDRAW -->
<svg xmlns="http://www.w3.org/2000/svg" xml:space="preserve" width="164.221mm" height="10.1097mm" version="1.0" shape-rendering="geometricPrecision" text-rendering="geometricPrecision" image-rendering="optimizeQuality" fill-rule="evenodd" clip-rule="evenodd"
viewBox="0 0 16185 996"
 xmlns:xlink="http://www.w3.org/1999/xlink"
 xmlns:xodm="http://www.corel.com/coreldraw/odm/2003">
 <g id="Layer_x0020_1">
  <metadata id="CorelCorpID_0Corel-Layer"/>
  <path fill="#FEFEFE" fill-rule="nonzero" d="M0 995l0 -995 1125 0 0 146 -938 0 0 283 851 0 0 146 -851 0 0 422 -187 -1zm2211 -52l0 -943 187 0 0 798 814 0 0 146 -1002 0 0 0zm4402 0l0 -943 194 0 581 646 578 -646 191 0 0 943 -181 0 0 -725 -510 580 -162 0 -511 -574 0 720 -182 0 0 0zm2740 0l0 -943 1125 0 0 139 -943 0 0 252 856 0 0 139 -856 0 0 275 954 0 0 139 -1136 0 0 0zm2244 0l0 -943 187 0 0 798 814 0 0 146 -1002 0 0 0zm2072 0l0 -943 187 0 0 943 -187 0zm2267 0l-402 -372 -396 372 -244 0 520 -479 -507 -465 249 0 391 360 388 -360 240 0 -511 465 520 479 -249 0 0 0zm-10992 -943l-193 0 -638 943 208 0 151 -228 90 -136 1 -1 26 -40 0 0 255 -384 283 425 92 136 152 228 214 0 -641 -943z"/>
 </g>
</svg>
